<?xml version="1.0"?>
<svg fill="#f6f6f6" xmlns="http://www.w3.org/2000/svg" viewBox="0 0 50 50">
    <path style="line-height:normal;text-indent:0;text-align:start;text-decoration-line:none;text-decoration-style:solid;text-decoration-color:#000;text-transform:none;block-progression:tb;isolation:auto;mix-blend-mode:normal" d="M 24 2 C 11.861562 2 2 11.861562 2 24 C 2 36.138438 11.861562 46 24 46 C 26.057 46 28.071 45.70325 30 45.15625 L 30 41.294922 C 28.505701 42.741017 26.809896 43.667575 25 43.921875 L 25 36 L 30 36 L 30 34 L 25 34 L 25 25 L 30 25 L 30 23 L 25 23 L 25 14 L 34.369141 14 C 35.26656 16.581879 35.833374 19.520938 35.958984 22.662109 L 37 23.638672 L 37.988281 24.564453 L 38.453125 25 L 43.964844 25 C 43.886961 26.525929 43.6426 28.027027 43.230469 29.478516 L 44.849609 30.996094 C 45.600609 28.758094 46 26.405 46 24 C 46 11.861562 36.138438 2 24 2 z M 23 4.0820312 L 23 12 L 14.441406 12 C 14.815308 11.177517 15.216252 10.391667 15.658203 9.6777344 C 17.652723 6.4557702 20.225928 4.4712946 23 4.0820312 z M 25 4.0820312 C 28.502905 4.5673063 31.577064 7.5673027 33.576172 12 L 25 12 L 25 4.0820312 z M 31.5 5.453125 C 34.897728 6.8264758 37.819758 9.1132981 39.988281 12 L 35.71875 12 C 34.625603 9.3729689 33.184879 7.1416283 31.5 5.453125 z M 16.425781 5.4921875 C 15.522945 6.4018228 14.687803 7.4445053 13.957031 8.625 C 13.317187 9.6586111 12.746976 10.791097 12.248047 12 L 8.0195312 12 C 10.171418 9.1373984 13.062419 6.8679183 16.425781 5.4921875 z M 6.6914062 14 L 11.521484 14 C 10.640626 16.725536 10.122266 19.773061 10.03125 23 L 4.0253906 23 C 4.1861944 19.727412 5.1459816 16.672022 6.6914062 14 z M 13.634766 14 L 23 14 L 23 23 L 12.03125 23 C 12.130525 19.72813 12.700635 16.665115 13.634766 14 z M 36.455078 14 L 41.324219 14 C 42.867355 16.670673 43.813933 19.730006 43.974609 23 L 37.96875 23 C 37.875701 19.770634 37.344009 16.722735 36.455078 14 z M 4.0253906 25 L 10.03125 25 C 10.122266 28.226939 10.640626 31.274464 11.521484 34 L 6.6914062 34 C 5.1459816 31.327978 4.1861944 28.272588 4.0253906 25 z M 12.03125 25 L 23 25 L 23 34 L 13.634766 34 C 12.700635 31.334885 12.130525 28.27187 12.03125 25 z M 33.953125 25.001953 A 1.0001 1.0001 0 0 0 33 26 L 33 45.25 A 1.0001 1.0001 0 0 0 34.707031 45.957031 L 37.720703 42.943359 L 40.230469 48.416016 A 1.0001 1.0001 0 0 0 41.556641 48.908203 L 45.416016 47.138672 A 1.0001 1.0001 0 0 0 45.908203 45.8125 L 43.300781 40.125 L 48 40.125 A 1.0001 1.0001 0 0 0 48.683594 38.394531 L 34.683594 25.269531 A 1.0001 1.0001 0 0 0 33.953125 25.001953 z M 35 28.308594 L 45.470703 38.125 L 41.875 38.125 A 1.0001 1.0001 0 0 0 41.427734 38.230469 L 41.320312 38.285156 A 1.0001 1.0001 0 0 0 40.857422 39.595703 L 43.673828 45.736328 L 41.630859 46.673828 L 38.939453 40.802734 A 1.0001 1.0001 0 0 0 37.322266 40.513672 L 35 42.835938 L 35 28.308594 z M 8.0195312 36 L 12.248047 36 C 12.746976 37.208903 13.317187 38.341389 13.957031 39.375 C 14.687803 40.555495 15.522945 41.598177 16.425781 42.507812 C 13.062419 41.132082 10.171418 38.862602 8.0195312 36 z M 14.441406 36 L 23 36 L 23 43.917969 C 20.225928 43.528706 17.652723 41.54423 15.658203 38.322266 C 15.216252 37.608333 14.815308 36.822483 14.441406 36 z"/>
</svg>
